<svg viewBox="1635 1569 96667 96896" xmlns="http://www.w3.org/2000/svg">
  <path d="M 98292,50082 L 98292,51299 L 98041,51299 L 98041,52512 L 97933,52512 L 97933,53729 L 97891,53729 L 97891,54958 L 97948,54958 L 97948,56123 L 97437,56123 L 97437,57349 L 97434,57349 L 97434,58625 L 97658,58625 L 97658,59815 L 97354,59815 L 97354,61007 L 97068,61007 L 97068,62109 L 96444,62109 L 96444,63237 L 95967,63237 L 95967,64422 L 95696,64422 L 95696,65722 L 95742,65722 L 95742,66911 L 95424,66911 L 95424,67730 L 94169,67730 L 94169,69128 L 94366,69128 L 94366,70025 L 93389,70025 L 93389,71338 L 93314,71338 L 93314,72103 L 92139,72103 L 92139,73287 L 91787,73287 L 91787,74514 L 91481,74514 L 91481,75422 L 90632,75422 L 90632,76704 L 90368,76704 L 90368,77568 L 89464,77568 L 89464,78483 L 88650,78483 L 88650,79236 L 87637,79236 L 87637,80655 L 87465,80655 L 87465,81115 L 86119,81115 L 86119,82571 L 85928,82571 L 85928,83239 L 84848,83239 L 84848,84347 L 84231,84347 L 84231,84722 L 82893,84722 L 82893,85694 L 82138,85694 L 82138,86215 L 80982,86215 L 80982,87023 L 80083,87023 L 80083,87874 L 79213,87874 L 79213,88861 L 78434,88861 L 78434,89490 L 77386,89490 L 77386,90035 L 76288,90035 L 76288,90659 L 75247,90659 L 75247,91834 L 74530,91834 L 74530,91663 L 73032,91663 L 73032,92769 L 72247,92769 L 72247,93129 L 71065,93129 L 71065,93719 L 69997,93719 L 69997,94601 L 69050,94601 L 69050,94483 L 67680,94483 L 67680,94626 L 66441,94626 L 66441,95786 L 65563,95786 L 65563,95363 L 64148,95363 L 64148,96153 L 63120,96153 L 63120,96752 L 62020,96752 L 62020,96319 L 60665,96319 L 60665,96704 L 59514,96704 L 59514,96954 L 58333,96954 L 58333,97717 L 57226,97717 L 57226,97419 L 55957,97419 L 55957,97683 L 54766,97683 L 54766,97392 L 53527,97392 L 53527,97506 L 52328,97506 L 52328,97750 L 51128,97750 L 51128,97884 L 49918,97884 L 49918,98455 L 48689,98455 L 48689,97950 L 47486,97950 L 47486,97626 L 46291,97626 L 46291,97900 L 45046,97900 L 45046,97981 L 43806,97981 L 43806,97693 L 42610,97693 L 42610,97475 L 41407,97475 L 41407,96948 L 40268,96948 L 40268,96341 L 39162,96341 L 39162,95987 L 38009,95987 L 38009,96196 L 36696,96196 L 36696,95887 L 35516,95887 L 35516,94958 L 34547,94958 L 34547,95161 L 33186,95161 L 33186,94474 L 32146,94474 L 32146,93686 L 31164,93686 L 31164,93591 L 29880,93591 L 29880,93365 L 28636,93365 L 28636,92868 L 27514,92868 L 27514,91996 L 26595,91996 L 26595,91248 L 25623,91248 L 25623,90405 L 24719,90405 L 24719,89965 L 23562,89965 L 23562,89216 L 22605,89216 L 22605,88794 L 21410,88794 L 21410,87854 L 20595,87854 L 20595,87135 L 19614,87135 L 19614,86044 L 18949,86044 L 18949,85497 L 17819,85497 L 17819,84807 L 16800,84807 L 16800,83553 L 16331,83553 L 16331,83087 L 15072,83087 L 15072,81979 L 14481,81979 L 14481,81230 L 13494,81230 L 13494,80364 L 12631,80364 L 12631,79438 L 11834,79438 L 11834,78320 L 11294,78320 L 11294,77350 L 10561,77350 L 10561,76275 L 9983,76275 L 9983,75427 L 9049,75427 L 9049,74517 L 8187,74517 L 8187,73207 L 8020,73207 L 8020,71987 L 7731,71987 L 7731,71263 L 6464,71263 L 6464,70095 L 6066,70095 L 6066,68916 L 5711,68916 L 5711,67727 L 5399,67727 L 5399,66691 L 4694,66691 L 4694,65298 L 4992,65298 L 4992,64223 L 4395,64223 L 4395,63008 L 4243,63008 L 4243,61887 L 3762,61887 L 3762,60810 L 3049,60810 L 3049,59627 L 2745,59627 L 2745,58451 L 2377,58451 L 2377,57232 L 2245,57232 L 2245,55998 L 2255,55998 L 2255,54788 L 2103,54788 L 2103,53599 L 1645,53599 L 1645,52353 L 1980,52353 L 1980,51122 L 2484,51122 L 2484,50076 L 94607,50076 L 94607,48713 L 2419,48713 L 2419,47502 L 2367,47502 L 2367,46305 L 2556,46305 L 2556,45069 L 2319,45069 L 2319,43868 L 2503,43868 L 2503,42604 L 2271,42604 L 2271,41378 L 2366,41378 L 2366,40243 L 2932,40243 L 2932,39158 L 3637,39158 L 3637,37993 L 3952,37993 L 3952,36700 L 3817,36700 L 3817,35502 L 4067,35502 L 4067,34405 L 4628,34405 L 4628,33233 L 4965,33233 L 4965,32219 L 5706,32219 L 5706,30966 L 5853,30966 L 5853,30059 L 6796,30059 L 6796,28764 L 6895,28764 L 6895,27555 L 7210,27555 L 7210,26525 L 7877,26525 L 7877,25807 L 9062,25807 L 9062,24416 L 9111,24416 L 9111,23301 L 9639,23301 L 9639,22495 L 10627,22495 L 10627,21248 L 10985,21248 L 10985,20458 L 11969,20458 L 11969,19850 L 13153,19850 L 13153,18527 L 13465,18527 L 13465,17780 L 14460,17780 L 14460,16736 L 15125,16736 L 15125,16113 L 16229,16113 L 16229,15375 L 17198,15375 L 17198,14067 L 17646,14067 L 17646,13204 L 18520,13204 L 18520,12766 L 19745,12766 L 19745,11706 L 20463,11706 L 20463,11476 L 21812,11476 L 21812,10306 L 22472,10306 L 22472,9799 L 23603,9799 L 23603,9481 L 24840,9481 L 24840,8594 L 25721,8594 L 25721,8321 L 26959,8321 L 26959,7306 L 27791,7306 L 27791,6632 L 28818,6632 L 28818,6289 L 30006,6289 L 30006,5752 L 31101,5752 L 31101,5616 L 32358,5616 L 32358,4838 L 33361,4838 L 33361,4326 L 34475,4326 L 34475,4414 L 35782,4414 L 35782,3495 L 36779,3495 L 36779,3373 L 38012,3373 L 38012,2815 L 39135,2815 L 39135,3440 L 40514,3440 L 40514,2709 L 41607,2709 L 41607,2818 L 42854,2818 L 42854,1922 L 43960,1922 L 43960,1884 L 45189,1884 L 45189,2138 L 46437,2138 L 46437,2264 L 47660,2264 L 47660,1956 L 48864,1956 L 48864,1579 L 50082,1579 L 50082,1956 L 51299,1956 L 51299,1669 L 52533,1669 L 52533,1656 L 53764,1656 L 53764,2349 L 54927,2349 L 54927,2193 L 56171,2193 L 56171,3042 L 57275,3042 L 57275,2822 L 58538,2822 L 58538,2858 L 59771,2858 L 59771,3154 L 60954,3154 L 60954,3953 L 62006,3953 L 62006,4034 L 63237,4034 L 63237,4422 L 64385,4422 L 64385,4471 L 65649,4471 L 65649,5053 L 66733,5053 L 66733,5422 L 67894,5422 L 67894,5800 L 69056,5800 L 69056,6313 L 70162,6313 L 70162,6949 L 71208,6949 L 71208,7281 L 72406,7281 L 72406,8118 L 73339,8118 L 73339,8878 L 74301,8878 L 74301,9110 L 75583,9110 L 75583,9760 L 76618,9760 L 76618,10542 L 77562,10542 L 77562,11459 L 78402,11459 L 78402,11839 L 79642,11839 L 79642,12591 L 80609,12591 L 80609,13867 L 81126,13867 L 81126,14279 L 82382,14279 L 82382,15350 L 83049,15350 L 83049,15940 L 84176,15940 L 84176,16870 L 84971,16870 L 84971,17882 L 85671,17882 L 85671,18636 L 86660,18636 L 86660,19524 L 87505,19524 L 87505,20842 L 87801,20842 L 87801,21454 L 89013,21454 L 89013,22634 L 89459,22634 L 89459,23916 L 89724,23916 L 89724,24675 L 90783,24675 L 90783,25871 L 91149,25871 L 91149,26864 L 91850,26864 L 91850,27747 L 92777,27747 L 92777,29088 L 92815,29088 L 92815,29845 L 94062,29845 L 94062,31020 L 94436,31020 L 94436,32266 L 94616,32266 L 94616,33501 L 94782,33501 L 94782,34499 L 95601,34499 L 95601,35767 L 95634,35767 L 95634,36965 L 95849,36965 L 95849,38021 L 96591,38021 L 96591,39160 L 97075,39160 L 97075,40461 L 96820,40461 L 96820,41594 L 97362,41594 L 97362,42761 L 97798,42761 L 97798,44061 L 97274,44061 L 97274,45271 L 97302,45271 L 97302,46441 L 97806,46441 L 97806,47663 L 97683,47663 L 97683,48874 L 97612,48874 L 97612,50082 Z" fill="cyan" stroke="none" />
  
  <line x1="4694" y1="66691" x2="5399" y2="66691" stroke="red" stroke-width="50" />
  <line x1="4965" y1="32219" x2="5706" y2="32219" stroke="red" stroke-width="50" />
  <line x1="5399" y1="67727" x2="5711" y2="67727" stroke="red" stroke-width="50" />
  <line x1="2419" y1="48713" x2="94607" y2="48713" stroke="red" stroke-width="50" />
  <line x1="2484" y1="50076" x2="94607" y2="50076" stroke="red" stroke-width="50" />
  <rect x="5399" y="50076" width="89209" height="17652" fill="none" stroke="blue" stroke-width="30" />
</svg>